<svg height="32" preserveAspectRatio="xMidYMid meet" viewBox="0 0 512 512" width="32" xmlns="http://www.w3.org/2000/svg"><path d="m2210 5103c-466-23-1095-102-1233-153-73-27-158-104-191-173-44-91-125-547-158-887-20-207-17-871 5-1075 36-332 112-753 150-835 30-64 97-126 173-162 50-23 108-37 267-63 197-32 484-67 660-81 101-8 107-13 107-91 0-74-15-114-81-212l-60-91-807-2-807-3-45-22c-63-31-128-98-159-163l-26-55v-385c0-347 2-390 18-432 33-86 111-163 195-192 34-12 390-15 2338-17l2299-2 53 21c76 29 133 80 173 154l34 63v400c0 395 0 401-23 446-36 74-87 125-160 161l-67 33-796-4-795-4-57 84c-31 46-63 104-72 128-18 52-20 141-2 163 9 11 49 18 152 27 370 32 787 97 872 137 69 33 147 108 173 167 37 83 107 457 140 748 62 543 45 1102-51 1649-45 262-75 377-110 432-54 83-143 139-258 163-232 48-740 107-1081 125-174 9-623 11-770 3zm895-583c198-5 461-11 585-14l225-5 30-57 30-58v-925c0-1073 7-990-99-1097-108-108 8-99-1326-99h-1155l-56 26c-72 34-134 96-168 168l-26 56-1 880c-1 484 1 867 5 850l7-30 14 45c19 61 57 114 103 142 21 13 44 28 51 34 12 12 215 65 311 83 68 12 1029 13 1470 1zm-1508-2407c19-9 40-27 46-40 9-21 5-29-43-78-43-43-63-56-103-65-43-9-51-8-63 7-7 10-14 39-14 64 0 54 26 94 74 115 41 18 61 17 103-3zm174-1692c56-57 30-149-49-171-48-13-196-13-244 0-79 22-105 114-49 171l29 29h142 142zm650 0c56-57 30-149-49-171-46-12-323-13-377 0-86 20-113 116-48 176 26 24 28 24 235 24h210z" transform="matrix(.1 0 0 -.1 0 512)"/></svg>