<?xml version="1.0" standalone="no"?>
<!DOCTYPE svg PUBLIC "-//W3C//DTD SVG 20010904//EN"
 "http://www.w3.org/TR/2001/REC-SVG-20010904/DTD/svg10.dtd">
<svg version="1.0" xmlns="http://www.w3.org/2000/svg"
 width="32" height="32" viewBox="0 0 512.000000 512.000000"
 preserveAspectRatio="xMidYMid meet">

<g transform="translate(0.000000,512.000000) scale(0.100000,-0.100000)"
fill="#F7B84B" stroke="none">
<path d="M546 5029 c-62 -15 -153 -68 -197 -116 -22 -24 -55 -74 -72 -111
l-32 -67 0 -975 0 -975 32 -67 c44 -93 100 -151 191 -196 l76 -37 248 -3 248
-4 0 -159 0 -159 -376 0 c-267 0 -389 -4 -418 -12 -55 -16 -138 -99 -154 -154
-17 -59 -17 -1049 0 -1108 16 -55 99 -138 154 -154 60 -17 3288 -17 3348 0 55
16 138 99 154 154 17 59 17 1049 0 1108 -16 55 -99 138 -154 154 -29 8 -151
12 -418 12 l-376 0 0 159 0 159 248 4 248 3 76 37 c91 45 147 103 191 196 31
66 32 71 35 235 l4 167 588 -2 c577 -3 589 -3 616 -24 53 -39 69 -71 69 -134
0 -63 -16 -95 -69 -134 -26 -20 -43 -21 -419 -26 l-392 -5 -50 -25 c-64 -31
-124 -92 -155 -155 -19 -41 -24 -66 -24 -135 -1 -78 2 -90 33 -148 38 -70 70
-101 145 -140 48 -25 61 -26 234 -32 178 -5 184 -6 203 -29 18 -22 19 -43 19
-316 l0 -292 -89 -5 c-162 -10 -279 -86 -349 -226 l-37 -76 -3 -305 c-4 -350
2 -400 58 -517 66 -136 185 -238 340 -290 76 -26 244 -26 320 0 185 62 314
191 376 376 17 49 19 90 19 396 l0 340 -37 76 c-70 140 -187 216 -349 226
l-89 5 0 295 c0 197 -4 308 -12 334 -15 49 -81 126 -128 147 -26 11 -81 17
-217 21 -163 4 -184 7 -209 26 -53 39 -69 71 -69 134 0 63 16 95 69 134 26 20
43 21 419 26 l392 5 51 27 c76 40 107 70 145 140 31 58 34 70 34 148 0 78 -3
90 -34 148 -38 70 -69 100 -145 140 l-51 27 -602 3 -602 3 -3 727 -3 727 -32
67 c-44 93 -100 151 -191 196 l-76 37 -1355 2 c-797 1 -1372 -3 -1395 -8z
m2728 -161 c55 -16 138 -99 154 -154 17 -59 17 -1849 0 -1908 -16 -55 -99
-138 -154 -154 -60 -17 -2648 -17 -2708 0 -55 16 -138 99 -154 154 -17 59 -17
1849 0 1908 15 51 99 137 148 153 53 17 2658 17 2714 1z m-634 -2548 l0 -160
-720 0 -720 0 0 160 0 160 720 0 720 0 0 -160z m935 -345 l25 -24 0 -376 0
-375 -1680 0 -1680 0 0 375 0 376 25 24 24 25 1631 0 1631 0 24 -25z m1139
-627 c26 -8 60 -31 91 -63 57 -56 75 -102 75 -189 l0 -56 -400 0 -400 0 0 56
c0 31 5 75 12 98 15 51 99 137 148 153 50 16 421 16 474 1z m-1114 -363 c0
-46 -4 -60 -25 -80 l-24 -25 -1631 0 -1631 0 -24 25 c-21 20 -25 34 -25 80 l0
55 1680 0 1680 0 0 -55z m1278 -272 c-3 -164 -4 -169 -35 -235 -44 -93 -100
-151 -191 -196 -72 -35 -81 -37 -171 -37 -87 0 -102 3 -163 32 -93 44 -151
100 -196 191 l-37 76 -4 168 -3 168 402 0 402 0 -4 -167z"/>
<path d="M655 4706 c-41 -18 -83 -69 -90 -109 -3 -18 -5 -334 -3 -704 3 -660
3 -672 24 -699 11 -15 33 -37 48 -48 27 -21 30 -21 1286 -21 1256 0 1259 0
1286 21 15 11 37 33 48 48 21 27 21 36 21 726 0 690 0 699 -21 726 -11 15 -33
37 -48 48 -27 21 -32 21 -1274 23 -1021 2 -1253 0 -1277 -11z m2465 -786 l0
-640 -1200 0 -1200 0 0 640 0 640 1200 0 1200 0 0 -640z"/>
<path d="M560 2880 l0 -80 80 0 80 0 0 80 0 80 -80 0 -80 0 0 -80z"/>
<path d="M880 2880 l0 -80 80 0 80 0 0 80 0 80 -80 0 -80 0 0 -80z"/>
<path d="M1200 2880 l0 -80 80 0 80 0 0 80 0 80 -80 0 -80 0 0 -80z"/>
<path d="M400 1760 l0 -80 80 0 80 0 0 80 0 80 -80 0 -80 0 0 -80z"/>
<path d="M720 1760 l0 -80 80 0 80 0 0 80 0 80 -80 0 -80 0 0 -80z"/>
<path d="M1040 1760 l0 -80 80 0 80 0 0 80 0 80 -80 0 -80 0 0 -80z"/>
<path d="M1360 1760 l0 -80 80 0 80 0 0 80 0 80 -80 0 -80 0 0 -80z"/>
<path d="M1680 1760 l0 -80 80 0 80 0 0 80 0 80 -80 0 -80 0 0 -80z"/>
<path d="M2000 1760 l0 -80 80 0 80 0 0 80 0 80 -80 0 -80 0 0 -80z"/>
<path d="M2320 1760 l0 -80 80 0 80 0 0 80 0 80 -80 0 -80 0 0 -80z"/>
<path d="M2640 1760 l0 -80 80 0 80 0 0 80 0 80 -80 0 -80 0 0 -80z"/>
<path d="M2960 1760 l0 -80 80 0 80 0 0 80 0 80 -80 0 -80 0 0 -80z"/>
<path d="M3280 1760 l0 -80 80 0 80 0 0 80 0 80 -80 0 -80 0 0 -80z"/>
<path d="M400 1440 l0 -80 80 0 80 0 0 80 0 80 -80 0 -80 0 0 -80z"/>
<path d="M720 1440 l0 -80 80 0 80 0 0 80 0 80 -80 0 -80 0 0 -80z"/>
<path d="M1040 1440 l0 -80 80 0 80 0 0 80 0 80 -80 0 -80 0 0 -80z"/>
<path d="M1360 1440 l0 -80 560 0 560 0 0 80 0 80 -560 0 -560 0 0 -80z"/>
<path d="M2640 1440 l0 -80 80 0 80 0 0 80 0 80 -80 0 -80 0 0 -80z"/>
<path d="M2960 1440 l0 -80 80 0 80 0 0 80 0 80 -80 0 -80 0 0 -80z"/>
<path d="M3280 1440 l0 -80 80 0 80 0 0 80 0 80 -80 0 -80 0 0 -80z"/>
</g>
</svg>
